<svg xmlns="http://www.w3.org/2000/svg" width="11.721" height="17.889" viewBox="0 0 11.721 17.889">
  <g id="star" transform="translate(-0.008)">
    <path id="Path_65" data-name="Path 65" d="M80.008,151.319a2.776,2.776,0,0,0,5.552,0v-1.311l-1.51,1.132.429,2.143-1.694-1.271-1.695,1.271.429-2.143-1.51-1.132Zm0,0" transform="translate(-76.916 -144.225)" fill="#fff"/>
    <path id="Path_66" data-name="Path 66" d="M80.008,128.742l1.934-.387.139-.347H80.008Zm0,0" transform="translate(-76.916 -123.073)" fill="#fff"/>
    <path id="Path_67" data-name="Path 67" d="M120.008,265.895v.4l1.234.987,1.234-.987v-.4a3.347,3.347,0,0,1-2.467,0Zm0,0" transform="translate(-115.374 -255.644)" fill="#fff"/>
    <path id="Path_68" data-name="Path 68" d="M172.3,128.008h-2.074l.139.347,1.934.387Zm0,0" transform="translate(-163.653 -123.073)" fill="#fff"/>
    <path id="Path_69" data-name="Path 69" d="M48.625,4.318h2.937l.456-1.139.456,1.139H55.41v.648a1.531,1.531,0,0,1,.617.285V4.01a4.009,4.009,0,0,0-8.019,0V5.251a1.527,1.527,0,0,1,.617-.285Zm0,0" transform="translate(-46.15)" fill="#fff"/>
    <path id="Path_70" data-name="Path 70" d="M116.551,125.551l-.392.981-1.029.206.837.628-.188.941.773-.58.773.58-.188-.941.837-.628-1.029-.206Zm0,0" transform="translate(-110.683 -120.71)" fill="#fff"/>
    <path id="Path_71" data-name="Path 71" d="M239.685,146.966c0,.086-.006.171-.013.256a.92.92,0,0,0,.013-1.741Zm0,0" transform="translate(-230.425 -139.872)" fill="#fff"/>
    <path id="Path_72" data-name="Path 72" d="M3.61,308.375l-1.291-2.581-1.257.419a1.54,1.54,0,0,0-1.055,1.463v4.218H1.55V308.5h.617v3.393H4.373l.565-3.388-.216-1.083Zm0,0" transform="translate(0 -294.004)" fill="#fff"/>
    <path id="Path_73" data-name="Path 73" d="M129.963,384.008l-.514,3.084h1.739l-.514-3.084Zm0,0" transform="translate(-124.451 -369.203)" fill="#fff"/>
    <path id="Path_74" data-name="Path 74" d="M76.187,291.224l1.577-1.351-1.121-.9-1.354.451Zm0,0" transform="translate(-72.379 -277.835)" fill="#fff"/>
    <path id="Path_75" data-name="Path 75" d="M180.019,306.211l-1.257-.419-1.291,2.582-1.111-.953-.217,1.083.565,3.388h2.206V308.5h.617v3.393h1.542v-4.218a1.54,1.54,0,0,0-1.054-1.463Zm0,0" transform="translate(-169.346 -294.003)" fill="#fff"/>
    <path id="Path_76" data-name="Path 76" d="M137.158,324.3l.246-1.23-.61-.523-.61.523.246,1.23Zm0,0" transform="translate(-130.926 -310.108)" fill="#fff"/>
    <path id="Path_77" data-name="Path 77" d="M167.018,289.428l-1.354-.451-1.121.9,1.577,1.351Zm0,0" transform="translate(-158.192 -277.836)" fill="#fff"/>
    <path id="Path_78" data-name="Path 78" d="M48.638,147.222c-.006-.084-.013-.169-.013-.256v-1.485a.92.92,0,0,0,.013,1.741Zm0,0" transform="translate(-46.15 -139.872)" fill="#fff"/>
  </g>
</svg>
