<svg xmlns="http://www.w3.org/2000/svg" width="18.5" height="18.5" viewBox="0 0 18.5 18.5">
  <g id="Icon_feather-copy" data-name="Icon feather-copy" transform="translate(-2 -2)">
    <path id="Path_2" data-name="Path 2" d="M15.15,13.5h7.425a1.65,1.65,0,0,1,1.65,1.65v7.425a1.65,1.65,0,0,1-1.65,1.65H15.15a1.65,1.65,0,0,1-1.65-1.65V15.15A1.65,1.65,0,0,1,15.15,13.5Z" transform="translate(-4.725 -4.725)" fill="none" stroke="#fff" stroke-linecap="round" stroke-linejoin="round" stroke-width="2"/>
    <path id="Path_3" data-name="Path 3" d="M5.475,13.725H4.65A1.65,1.65,0,0,1,3,12.075V4.65A1.65,1.65,0,0,1,4.65,3h7.425a1.65,1.65,0,0,1,1.65,1.65v.825" fill="none" stroke="#fff" stroke-linecap="round" stroke-linejoin="round" stroke-width="2"/>
  </g>
</svg>
