<svg xmlns="http://www.w3.org/2000/svg" width="17.889" height="17.889" viewBox="0 0 17.889 17.889">
  <g id="logout" transform="translate(0 -0.004)">
    <path id="Path_62" data-name="Path 62" d="M11.181,9.694a.745.745,0,0,0-.745.745v2.982a.746.746,0,0,1-.745.745H7.454V2.985A1.5,1.5,0,0,0,6.439,1.568l-.221-.074H9.69a.746.746,0,0,1,.745.745V4.476a.745.745,0,0,0,1.491,0V2.24A2.239,2.239,0,0,0,9.69,0H1.677A.585.585,0,0,0,1.6.02C1.561.017,1.527,0,1.491,0A1.492,1.492,0,0,0,0,1.495V14.911a1.5,1.5,0,0,0,1.015,1.417l4.486,1.5a1.543,1.543,0,0,0,.462.069A1.492,1.492,0,0,0,7.454,16.4v-.745H9.69a2.239,2.239,0,0,0,2.236-2.236V10.439a.745.745,0,0,0-.745-.745Zm0,0" transform="translate(0)" fill="#4b5687"/>
    <path id="Path_63" data-name="Path 63" d="M285.313,109.866l-2.982-2.981a.745.745,0,0,0-1.272.527v2.236h-2.982a.745.745,0,1,0,0,1.491h2.982v2.236a.745.745,0,0,0,1.272.527l2.982-2.982A.745.745,0,0,0,285.313,109.866Zm0,0" transform="translate(-267.642 -102.935)" fill="#4b5687"/>
  </g>
</svg>
