<svg xmlns="http://www.w3.org/2000/svg" width="24.476" height="27.971" viewBox="0 0 24.476 27.971">
  <g id="user" transform="translate(-31.771)">
    <path id="Path_38" data-name="Path 38" d="M56.247,17.6H51.9l-1.588-3.575h-.066a8.5,8.5,0,0,0-4.955-3.869,5.733,5.733,0,1,0-7.305-.018,8.5,8.5,0,0,0-4.18,2.7l-.024.028a8.529,8.529,0,0,0-2.01,5.5v4.623H44.7l-1.1,3.8,1.184,1.184,4.584-2.5,4.584,2.5,1.184-1.184-1.326-4.6,2.434-2.908ZM37.565,5.733a4.083,4.083,0,1,1,4.083,4.083A4.087,4.087,0,0,1,37.565,5.733ZM33.421,18.362a6.877,6.877,0,0,1,1.621-4.431l.024-.028a6.855,6.855,0,0,1,5.247-2.437H42.9a6.85,6.85,0,0,1,5.276,2.471c.1.115.188.234.276.355L46.861,17.6H42.5v1.675l1.723,2.059h-10.8ZM51.985,21.8l1.1,3.819-3.713-2.025-3.713,2.025,1.1-3.819-2.131-2.547H47.9l1.521-3.167,1.407,3.167h3.289Z" fill="#4b5687"/>
  </g>
</svg>
