<svg xmlns="http://www.w3.org/2000/svg" width="24.869" height="17.889" viewBox="0 0 24.869 17.889">
  <g id="programming" transform="translate(0 -68.7)">
    <path id="Path_64" data-name="Path 64" d="M21.35,68.7H3.52A3.5,3.5,0,0,0,0,72.161V83.128a3.5,3.5,0,0,0,3.52,3.461H21.35a3.5,3.5,0,0,0,3.52-3.461V72.161A3.5,3.5,0,0,0,21.35,68.7ZM9.025,74.206l-3.7,3.64,3.293,3.237a.707.707,0,0,1,0,1.013.737.737,0,0,1-1.03,0L3.777,78.352a.707.707,0,0,1,0-1.013l4.218-4.147a.738.738,0,0,1,1.031,0,.708.708,0,0,1,0,1.013Zm6.01-1.685L11.183,83.246a.732.732,0,0,1-.93.437.713.713,0,0,1-.444-.914l3.853-10.725a.732.732,0,0,1,.93-.437A.713.713,0,0,1,15.035,72.52Zm6.057,5.429L16.875,82.1a.738.738,0,0,1-1.031,0,.708.708,0,0,1,0-1.013l3.7-3.64-3.293-3.237a.707.707,0,0,1,0-1.013.737.737,0,0,1,1.03,0l3.808,3.744a.707.707,0,0,1,0,1.013Z" transform="translate(0 0)" fill="#fff"/>
  </g>
</svg>
